<svg width="50" height="51" viewBox="0 0 50 51" fill="none" xmlns="http://www.w3.org/2000/svg">
<circle cx="25" cy="25.0234" r="25" fill="#FE5301"/>
<path d="M31.4286 16.0234H18.5714C17.6245 16.0246 16.7168 16.4015 16.0473 17.0717C15.3777 17.7418 15.0011 18.6503 15 19.5981V33.8967C15 34.0863 15.0753 34.2683 15.2092 34.4023C15.3431 34.5363 15.5249 34.6117 15.7143 34.6117H28.5714C28.7608 34.6117 28.9426 34.5363 29.0765 34.4023C29.2105 34.2683 29.2857 34.0863 29.2857 33.8967V19.5981C29.2857 18.8318 29.6942 18.1237 30.3571 17.7407C31.0201 17.3575 31.8371 17.3575 32.5 17.7407C33.1629 18.1237 33.5714 18.8318 33.5714 19.5981C33.5714 19.8536 33.4353 20.0896 33.2143 20.2173C32.9933 20.3449 32.721 20.3449 32.5 20.2173C32.279 20.0896 32.1429 19.8536 32.1429 19.5981C32.1429 19.3426 32.0067 19.1066 31.7857 18.9789C31.5647 18.8513 31.2924 18.8513 31.0714 18.9789C30.8504 19.1066 30.7143 19.3426 30.7143 19.5981C30.7143 20.3644 31.1228 21.0725 31.7857 21.4555C32.4487 21.8387 33.2656 21.8387 33.9286 21.4555C34.5915 21.0725 35 20.3644 35 19.5981C34.9989 18.6503 34.6223 17.7418 33.9527 17.0717C33.2832 16.4015 32.3755 16.0245 31.4286 16.0234ZM17.8571 20.313C17.8571 20.1234 17.9324 19.9415 18.0663 19.8075C18.2003 19.6734 18.382 19.5981 18.5714 19.5981H22.1429C22.3323 19.5981 22.514 19.6734 22.648 19.8075C22.7819 19.9415 22.8571 20.1234 22.8571 20.313V24.6026C22.8571 24.7922 22.7819 24.9741 22.648 25.1082C22.514 25.2422 22.3323 25.3176 22.1429 25.3176H18.5714C18.382 25.3176 18.2003 25.2422 18.0663 25.1082C17.9324 24.9741 17.8571 24.7922 17.8571 24.6026V20.313ZM25.7143 31.037H18.5714C18.3162 31.037 18.0804 30.9007 17.9528 30.6795C17.8253 30.4584 17.8253 30.1858 17.9528 29.9646C18.0804 29.7434 18.3162 29.6071 18.5714 29.6071H25.7143C25.9695 29.6071 26.2053 29.7434 26.3329 29.9646C26.4604 30.1858 26.4604 30.4584 26.3329 30.6795C26.2053 30.9007 25.9695 31.037 25.7143 31.037ZM25.7143 28.1773H18.5714C18.3162 28.1773 18.0804 28.041 17.9528 27.8198C17.8253 27.5986 17.8253 27.3261 17.9528 27.1049C18.0804 26.8837 18.3162 26.7474 18.5714 26.7474H25.7143C25.9695 26.7474 26.2053 26.8837 26.3329 27.1049C26.4604 27.3261 26.4604 27.5986 26.3329 27.8198C26.2053 28.041 25.9695 28.1773 25.7143 28.1773ZM25.7143 24.6026H25C24.7447 24.6026 24.5089 24.4663 24.3814 24.2452C24.2538 24.024 24.2538 23.7514 24.3814 23.5302C24.5089 23.309 24.7447 23.1728 25 23.1728H25.7143C25.9695 23.1728 26.2053 23.309 26.3329 23.5302C26.4604 23.7514 26.4604 24.024 26.3329 24.2452C26.2053 24.4663 25.9695 24.6026 25.7143 24.6026ZM25.7143 21.7429H25C24.7447 21.7429 24.5089 21.6066 24.3814 21.3854C24.2538 21.1642 24.2538 20.8917 24.3814 20.6705C24.5089 20.4493 24.7447 20.313 25 20.313H25.7143C25.9695 20.313 26.2053 20.4493 26.3329 20.6705C26.4604 20.8917 26.4604 21.1642 26.3329 21.3854C26.2053 21.6066 25.9695 21.7429 25.7143 21.7429Z" fill="white"/>
</svg>
