<svg width="124" height="64" viewBox="0 0 124 64" fill="none" xmlns="http://www.w3.org/2000/svg">
<path d="M46.9161 23.1952L14.5301 23.2618C17.2159 18.6099 22.1709 15.7392 27.5938 15.7296L54.4051 15.6634C54.4287 19.8382 51.0909 23.1716 46.9161 23.1952Z" fill="#F5D253"/>
<path d="M32.6708 47.868L0.250813 47.9935C2.9706 43.2827 7.92558 40.412 13.3145 40.4613L40.1847 40.4291C40.1834 44.511 36.8116 47.9033 32.6708 47.868Z" fill="#F5D253"/>
<path d="M23.1122 35.5964L7.39147 35.6276C10.0773 30.9757 15.0322 28.1049 20.4552 28.0954L30.6012 28.0646C30.5659 32.2055 27.2281 35.5388 23.1122 35.5964Z" fill="#F5D253"/>
<path d="M58.3501 36.194C58.6164 37.5665 59.2412 38.6318 60.2245 39.3897C61.2283 40.1477 62.4575 40.5267 63.9119 40.5267C65.94 40.5267 67.415 39.779 68.3369 38.2835L70.6108 39.5741C69.1153 41.889 66.8619 43.0464 63.8505 43.0464C61.4127 43.0464 59.4256 42.2885 57.8891 40.7725C56.3732 39.2361 55.6152 37.3002 55.6152 34.9648C55.6152 32.6499 56.363 30.7243 57.8584 29.1878C59.3539 27.6514 61.2898 26.8832 63.6661 26.8832C65.9195 26.8832 67.753 27.6821 69.1665 29.28C70.6005 30.8574 71.3175 32.7626 71.3175 34.9955C71.3175 35.3848 71.2868 35.7842 71.2253 36.194H58.3501ZM63.6661 29.4029C62.2321 29.4029 61.0439 29.8127 60.1016 30.6321C59.1593 31.431 58.5754 32.5065 58.3501 33.8586H68.6134C68.3881 32.4041 67.8145 31.2979 66.8926 30.5399C65.9708 29.7819 64.8953 29.4029 63.6661 29.4029Z" fill="white"/>
<path d="M81.5818 43.0464C79.2669 43.0464 77.3413 42.2782 75.8049 40.7418C74.2684 39.1849 73.5002 37.2592 73.5002 34.9648C73.5002 32.6704 74.2684 30.755 75.8049 29.2186C77.3413 27.6617 79.2669 26.8832 81.5818 26.8832C83.0978 26.8832 84.4601 27.2519 85.6687 27.9894C86.8774 28.7064 87.7788 29.6795 88.3728 30.9086L86.1297 32.1992C85.7404 31.3798 85.1361 30.7243 84.3167 30.2326C83.5177 29.741 82.6061 29.4951 81.5818 29.4951C80.0454 29.4951 78.7548 30.0175 77.71 31.0623C76.6857 32.1071 76.1736 33.4079 76.1736 34.9648C76.1736 36.5012 76.6857 37.7918 77.71 38.8366C78.7548 39.8814 80.0454 40.4038 81.5818 40.4038C82.6061 40.4038 83.528 40.1682 84.3474 39.697C85.1668 39.2054 85.7916 38.5498 86.2218 37.7304L88.4958 39.0517C87.8402 40.2604 86.8979 41.2334 85.6687 41.9709C84.4396 42.6879 83.0773 43.0464 81.5818 43.0464Z" fill="white"/>
<path d="M98.7867 26.8832C100.589 26.8832 102.034 27.4568 103.119 28.604C104.205 29.7307 104.748 31.2671 104.748 33.2133V42.647H102.075V33.3669C102.075 32.1173 101.737 31.1545 101.061 30.4784C100.385 29.7819 99.4525 29.4337 98.2643 29.4337C96.9328 29.4337 95.8573 29.8536 95.0378 30.6935C94.2184 31.513 93.8087 32.7831 93.8087 34.5039V42.647H91.1353V21.137H93.8087V29.4951C94.8944 27.7538 96.5538 26.8832 98.7867 26.8832Z" fill="white"/>
<path d="M121.448 40.7111C119.87 42.268 117.955 43.0464 115.701 43.0464C113.448 43.0464 111.533 42.268 109.955 40.7111C108.398 39.1541 107.62 37.2387 107.62 34.9648C107.62 32.6909 108.398 30.7755 109.955 29.2186C111.533 27.6617 113.448 26.8832 115.701 26.8832C117.955 26.8832 119.87 27.6617 121.448 29.2186C123.025 30.7755 123.814 32.6909 123.814 34.9648C123.814 37.2387 123.025 39.1541 121.448 40.7111ZM115.701 40.4345C117.238 40.4345 118.528 39.9121 119.573 38.8673C120.618 37.8226 121.14 36.5217 121.14 34.9648C121.14 33.4079 120.618 32.1071 119.573 31.0623C118.528 30.0175 117.238 29.4951 115.701 29.4951C114.185 29.4951 112.905 30.0175 111.86 31.0623C110.816 32.1071 110.293 33.4079 110.293 34.9648C110.293 36.5217 110.816 37.8226 111.86 38.8673C112.905 39.9121 114.185 40.4345 115.701 40.4345Z" fill="white"/>
</svg>
