<svg width="152" height="79" viewBox="0 0 152 79" fill="none" xmlns="http://www.w3.org/2000/svg">
<path d="M57.4039 28.6875L17.5668 28.7977C20.8746 23.0878 26.9721 19.5612 33.6427 19.5447L66.6225 19.44C66.6478 24.5622 62.5392 28.6549 57.4039 28.6875Z" fill="#FE4358"/>
<path d="M39.8793 58.9511L0.000399173 59.1336C3.35008 53.3514 9.44757 49.8249 16.0763 49.8806L49.1285 49.8176C49.1233 54.8258 44.9728 58.9908 39.8793 58.9511Z" fill="#FE4358"/>
<path d="M28.1183 43.906L8.78235 43.9581C12.0899 38.2486 18.1868 34.7224 24.8569 34.7059L37.3361 34.6593C37.289 39.7394 33.1808 43.8317 28.1183 43.906Z" fill="#FE4358"/>
<path d="M71.466 44.6411C71.7937 46.3247 72.5623 47.6314 73.772 48.5611C75.0069 49.4908 76.519 49.9557 78.3084 49.9557C80.8034 49.9557 82.6179 49.0385 83.752 47.2042L86.5494 48.7873C84.7097 51.6267 81.9374 53.0464 78.2328 53.0464C75.2337 53.0464 72.7891 52.1167 70.899 50.2572C69.034 48.3727 68.1016 45.9981 68.1016 43.1335C68.1016 40.294 69.0214 37.932 70.8612 36.0474C72.7009 34.1628 75.0825 33.2205 78.0059 33.2205C80.7782 33.2205 83.0337 34.2005 84.7727 36.1605C86.5368 38.0953 87.4189 40.4322 87.4189 43.1712C87.4189 43.6486 87.3811 44.1386 87.3055 44.6411H71.466ZM78.0059 36.3112C76.2418 36.3112 74.7801 36.8138 73.6208 37.8189C72.4615 38.7989 71.7432 40.1181 71.466 41.7766H84.0922C83.815 39.9925 83.1093 38.6356 81.9752 37.7058C80.8412 36.7761 79.5181 36.3112 78.0059 36.3112Z" fill="white"/>
<path d="M100.046 53.0464C97.1984 53.0464 94.8294 52.1041 92.9393 50.2196C91.0491 48.3098 90.1041 45.9478 90.1041 43.1335C90.1041 40.3191 91.0491 37.9697 92.9393 36.0851C94.8294 34.1754 97.1984 33.2205 100.046 33.2205C101.911 33.2205 103.587 33.6728 105.074 34.5774C106.561 35.4569 107.67 36.6505 108.401 38.1581L105.641 39.7412C105.162 38.7361 104.419 37.932 103.411 37.3289C102.428 36.7259 101.306 36.4243 100.046 36.4243C98.1561 36.4243 96.5684 37.0651 95.2831 38.3466C94.023 39.6281 93.3929 41.2238 93.3929 43.1335C93.3929 45.0181 94.023 46.6011 95.2831 47.8827C96.5684 49.1642 98.1561 49.8049 100.046 49.8049C101.306 49.8049 102.44 49.516 103.449 48.938C104.457 48.335 105.225 47.5309 105.754 46.5257L108.552 48.1465C107.745 49.629 106.586 50.8226 105.074 51.7272C103.562 52.6067 101.886 53.0464 100.046 53.0464Z" fill="white"/>
<path d="M121.212 33.2205C123.43 33.2205 125.207 33.9241 126.542 35.3313C127.878 36.7133 128.546 38.5979 128.546 40.985V52.5564H125.257V41.1735C125.257 39.6407 124.841 38.4597 124.009 37.6305C123.178 36.7761 122.031 36.3489 120.569 36.3489C118.931 36.3489 117.608 36.8641 116.6 37.8943C115.592 38.8994 115.088 40.4574 115.088 42.5681V52.5564H111.799V26.1721H115.088V36.4243C116.424 34.2884 118.465 33.2205 121.212 33.2205Z" fill="white"/>
<path d="M149.09 50.1819C147.149 52.0916 144.793 53.0464 142.021 53.0464C139.249 53.0464 136.892 52.0916 134.952 50.1819C133.036 48.2721 132.079 45.9227 132.079 43.1335C132.079 40.3443 133.036 37.9948 134.952 36.0851C136.892 34.1754 139.249 33.2205 142.021 33.2205C144.793 33.2205 147.149 34.1754 149.09 36.0851C151.031 37.9948 152.001 40.3443 152.001 43.1335C152.001 45.9227 151.031 48.2721 149.09 50.1819ZM142.021 49.8426C143.911 49.8426 145.499 49.2019 146.784 47.9203C148.069 46.6388 148.712 45.0432 148.712 43.1335C148.712 41.2238 148.069 39.6281 146.784 38.3466C145.499 37.0651 143.911 36.4243 142.021 36.4243C140.156 36.4243 138.581 37.0651 137.295 38.3466C136.01 39.6281 135.367 41.2238 135.367 43.1335C135.367 45.0432 136.01 46.6388 137.295 47.9203C138.581 49.2019 140.156 49.8426 142.021 49.8426Z" fill="white"/>
</svg>
