<svg width="124" height="64" viewBox="0 0 124 64" fill="none" xmlns="http://www.w3.org/2000/svg">
<path d="M46.8878 23.3084L14.5018 23.3751C17.1876 18.7232 22.1426 15.8524 27.5655 15.8429L54.3768 15.7767C54.4004 19.9515 51.0626 23.2849 46.8878 23.3084Z" fill="#9F68F5"/>
<path d="M32.6435 47.9813L0.22347 48.1068C2.94325 43.396 7.89823 40.5252 13.2872 40.5745L40.1574 40.5424C40.156 44.6243 36.7843 48.0166 32.6435 47.9813Z" fill="#9F68F5"/>
<path d="M23.0829 35.7097L7.36217 35.7409C10.048 31.0889 15.0029 28.2182 20.4259 28.2086L30.5719 28.1779C30.5366 32.3187 27.1988 35.6521 23.0829 35.7097Z" fill="#9F68F5"/>
<path d="M58.3139 36.3072C58.5803 37.6798 59.2051 38.745 60.1884 39.503C61.1922 40.261 62.4213 40.64 63.8758 40.64C65.9039 40.64 67.3789 39.8922 68.3007 38.3968L70.5746 39.6874C69.0792 42.0023 66.8258 43.1597 63.8144 43.1597C61.3766 43.1597 59.3894 42.4017 57.853 40.8858C56.3371 39.3494 55.5791 37.4135 55.5791 35.0781C55.5791 32.7632 56.3268 30.8376 57.8223 29.3011C59.3177 27.7647 61.2536 26.9965 63.63 26.9965C65.8834 26.9965 67.7169 27.7954 69.1304 29.3933C70.5644 30.9707 71.2814 32.8759 71.2814 35.1088C71.2814 35.4981 71.2507 35.8975 71.1892 36.3072H58.3139ZM63.63 29.5162C62.196 29.5162 61.0078 29.9259 60.0655 30.7454C59.1231 31.5443 58.5393 32.6198 58.3139 33.9719H68.5773C68.3519 32.5174 67.7783 31.4112 66.8565 30.6532C65.9346 29.8952 64.8591 29.5162 63.63 29.5162Z" fill="#181823"/>
<path d="M81.5457 43.1597C79.2308 43.1597 77.3052 42.3915 75.7687 40.8551C74.2323 39.2982 73.4641 37.3725 73.4641 35.0781C73.4641 32.7837 74.2323 30.8683 75.7687 29.3319C77.3052 27.7749 79.2308 26.9965 81.5457 26.9965C83.0616 26.9965 84.4239 27.3652 85.6326 28.1027C86.8413 28.8197 87.7426 29.7928 88.3367 31.0219L86.0935 32.3125C85.7043 31.4931 85.1 30.8376 84.2805 30.3459C83.4816 29.8542 82.57 29.6084 81.5457 29.6084C80.0093 29.6084 78.7187 30.1308 77.6739 31.1756C76.6496 32.2203 76.1375 33.5212 76.1375 35.0781C76.1375 36.6145 76.6496 37.9051 77.6739 38.9499C78.7187 39.9947 80.0093 40.5171 81.5457 40.5171C82.57 40.5171 83.4918 40.2815 84.3113 39.8103C85.1307 39.3186 85.7555 38.6631 86.1857 37.8437L88.4596 39.165C87.8041 40.3737 86.8617 41.3467 85.6326 42.0842C84.4035 42.8012 83.0412 43.1597 81.5457 43.1597Z" fill="#181823"/>
<path d="M98.7506 26.9965C100.553 26.9965 101.998 27.5701 103.083 28.7173C104.169 29.844 104.712 31.3804 104.712 33.3266V42.7602H102.039V33.4802C102.039 32.2306 101.701 31.2678 101.024 30.5917C100.348 29.8952 99.4164 29.547 98.2282 29.547C96.8966 29.547 95.8211 29.9669 95.0017 30.8068C94.1823 31.6263 93.7725 32.8964 93.7725 34.6172V42.7602H91.0992V21.2502H93.7725V29.6084C94.8583 27.8671 96.5176 26.9965 98.7506 26.9965Z" fill="#181823"/>
<path d="M121.411 40.8243C119.834 42.3813 117.919 43.1597 115.665 43.1597C113.412 43.1597 111.496 42.3813 109.919 40.8243C108.362 39.2674 107.584 37.352 107.584 35.0781C107.584 32.8042 108.362 30.8888 109.919 29.3319C111.496 27.7749 113.412 26.9965 115.665 26.9965C117.919 26.9965 119.834 27.7749 121.411 29.3319C122.989 30.8888 123.778 32.8042 123.778 35.0781C123.778 37.352 122.989 39.2674 121.411 40.8243ZM115.665 40.5478C117.202 40.5478 118.492 40.0254 119.537 38.9806C120.582 37.9359 121.104 36.635 121.104 35.0781C121.104 33.5212 120.582 32.2203 119.537 31.1756C118.492 30.1308 117.202 29.6084 115.665 29.6084C114.149 29.6084 112.869 30.1308 111.824 31.1756C110.779 32.2203 110.257 33.5212 110.257 35.0781C110.257 36.635 110.779 37.9359 111.824 38.9806C112.869 40.0254 114.149 40.5478 115.665 40.5478Z" fill="#181823"/>
</svg>
