<svg width="125" height="64" viewBox="0 0 125 64" fill="none" xmlns="http://www.w3.org/2000/svg">
<path d="M47.3526 23.1034L14.9666 23.17C17.6524 18.5181 22.6074 15.6474 28.0304 15.6378L54.8416 15.5716C54.8652 19.7464 51.5275 23.0798 47.3526 23.1034Z" fill="#FE5301"/>
<path d="M33.1083 47.7762L0.688313 47.9017C3.4081 43.1909 8.36308 40.3202 13.752 40.3695L40.6222 40.3373C40.6209 44.4192 37.2491 47.8115 33.1083 47.7762Z" fill="#FE5301"/>
<path d="M23.5477 35.5046L7.82701 35.5358C10.5128 30.8839 15.4678 28.0131 20.8907 28.0036L31.0367 27.9728C31.0014 32.1137 27.6637 35.447 23.5477 35.5046Z" fill="#FE5301"/>
<path d="M58.7788 36.1022C59.0451 37.4747 59.6699 38.54 60.6532 39.2979C61.657 40.0559 62.8862 40.4349 64.3407 40.4349C66.3687 40.4349 67.8437 39.6872 68.7656 38.1917L71.0395 39.4823C69.544 41.7972 67.2906 42.9546 64.2792 42.9546C61.8414 42.9546 59.8543 42.1967 58.3179 40.6807C56.8019 39.1443 56.0439 37.2084 56.0439 34.873C56.0439 32.5581 56.7917 30.6325 58.2871 29.0961C59.7826 27.5596 61.7185 26.7914 64.0948 26.7914C66.3483 26.7914 68.1817 27.5904 69.5952 29.1882C71.0292 30.7656 71.7462 32.6708 71.7462 34.9038C71.7462 35.293 71.7155 35.6925 71.6541 36.1022H58.7788ZM64.0948 29.3112C62.6608 29.3112 61.4727 29.7209 60.5303 30.5403C59.588 31.3392 59.0041 32.4147 58.7788 33.7668H69.0421C68.8168 32.3123 68.2432 31.2061 67.3213 30.4481C66.3995 29.6901 65.324 29.3112 64.0948 29.3112Z" fill="white"/>
<path d="M82.0105 42.9546C79.6957 42.9546 77.77 42.1864 76.2336 40.65C74.6971 39.0931 73.9289 37.1674 73.9289 34.873C73.9289 32.5786 74.6971 30.6632 76.2336 29.1268C77.77 27.5699 79.6957 26.7914 82.0105 26.7914C83.5265 26.7914 84.8888 27.1602 86.0974 27.8976C87.3061 28.6146 88.2075 29.5877 88.8016 30.8169L86.5584 32.1075C86.1691 31.288 85.5648 30.6325 84.7454 30.1408C83.9464 29.6492 83.0348 29.4033 82.0105 29.4033C80.4741 29.4033 79.1835 29.9257 78.1387 30.9705C77.1145 32.0153 76.6023 33.3161 76.6023 34.873C76.6023 36.4095 77.1145 37.7001 78.1387 38.7448C79.1835 39.7896 80.4741 40.312 82.0105 40.312C83.0348 40.312 83.9567 40.0764 84.7761 39.6052C85.5955 39.1136 86.2204 38.458 86.6506 37.6386L88.9245 38.9599C88.2689 40.1686 87.3266 41.1416 86.0974 41.8791C84.8683 42.5961 83.506 42.9546 82.0105 42.9546Z" fill="white"/>
<path d="M99.2154 26.7914C101.018 26.7914 102.462 27.365 103.548 28.5122C104.634 29.6389 105.177 31.1754 105.177 33.1215V42.5552H102.503V33.2751C102.503 32.0255 102.165 31.0627 101.489 30.3867C100.813 29.6901 99.8812 29.3419 98.693 29.3419C97.3615 29.3419 96.286 29.7618 95.4665 30.6018C94.6471 31.4212 94.2374 32.6913 94.2374 34.4121V42.5552H91.564V21.0452H94.2374V29.4033C95.3231 27.6621 96.9825 26.7914 99.2154 26.7914Z" fill="white"/>
<path d="M121.876 40.6193C120.299 42.1762 118.383 42.9546 116.13 42.9546C113.877 42.9546 111.961 42.1762 110.384 40.6193C108.827 39.0623 108.048 37.1469 108.048 34.873C108.048 32.5991 108.827 30.6837 110.384 29.1268C111.961 27.5699 113.877 26.7914 116.13 26.7914C118.383 26.7914 120.299 27.5699 121.876 29.1268C123.454 30.6837 124.242 32.5991 124.242 34.873C124.242 37.1469 123.454 39.0623 121.876 40.6193ZM116.13 40.3427C117.666 40.3427 118.957 39.8203 120.002 38.7756C121.047 37.7308 121.569 36.4299 121.569 34.873C121.569 33.3161 121.047 32.0153 120.002 30.9705C118.957 29.9257 117.666 29.4033 116.13 29.4033C114.614 29.4033 113.334 29.9257 112.289 30.9705C111.244 32.0153 110.722 33.3161 110.722 34.873C110.722 36.4299 111.244 37.7308 112.289 38.7756C113.334 39.8203 114.614 40.3427 116.13 40.3427Z" fill="white"/>
</svg>
