<svg width="23" height="17" viewBox="0 0 23 17" fill="none" xmlns="http://www.w3.org/2000/svg">
<path fill-rule="evenodd" clip-rule="evenodd" d="M5.97921 5.95864C7.3669 4.37412 8.18468 2.35373 8.41369 0.545671L6.55717 0.31665C6.37041 1.79112 5.69141 3.46357 4.56367 4.75126C3.45456 6.0177 1.94021 6.8861 0.0265007 6.89358C0.0181618 6.89355 0.00982285 6.89354 0.00147247 6.89354V8.73996L0.0158901 8.74004H0.0304642C1.88302 8.75017 3.38831 9.73137 4.51968 11.2385C5.66512 12.7644 6.36253 14.7572 6.55519 16.5317L8.41552 16.335C8.1924 14.28 7.3492 11.6458 5.97921 9.82081C5.59967 9.31519 5.50482 9.1605 5.0288 8.74005L22.4531 8.74004V6.89362L5.0288 6.89362C5.37152 6.60453 5.68849 6.2906 5.97921 5.95864Z" fill="#EBEBEB"/>
</svg>
